<?xml version="1.0" encoding="iso-8859-1"?>
<!-- Generator: Adobe Illustrator 19.0.0, SVG Export Plug-In . SVG Version: 6.00 Build 0)  -->
<svg version="1.1" id="Capa_1" xmlns="http://www.w3.org/2000/svg" xmlns:xlink="http://www.w3.org/1999/xlink" x="0px" y="0px"
	 viewBox="0 0 386.334 386.334" style="enable-background:new 0 0 386.334 386.334;" xml:space="preserve">
<g>
	<g>
		<path fill="currentColor" d="M384.112,240.736c-2.444-1.822-5.903-1.317-7.725,1.128c-27.04,36.52-64.88,13.48-96-5.48
			c-7.48-4.56-14.64-8.92-21.36-12.32l1.44-0.88c3.226-2.042,5.958-4.774,8-8c4.588-7.703,4.132-17.402-1.16-24.64
			c-4.044-6.41-8.493-12.556-13.32-18.4c-7.76-9.68-13.48-16.92-19.36-40.92c-0.32-2-11.28-65.2-39.28-65.72h-4.56h-0.84
			c-27.32,1.64-38.2,63.64-38.24,65.8c-5.88,24.12-11.6,31.24-19.36,40.92c-4.827,5.843-9.276,11.989-13.32,18.4
			c-5.292,7.238-5.748,16.937-1.16,24.64c2.042,3.226,4.774,5.958,8,8l1.44,0.88c-6.72,3.4-13.84,7.76-21.36,12.32
			c-31.28,18.96-69.12,42-96,5.48c-1.313-1.763-3.548-2.578-5.688-2.075c-2.968,0.697-4.809,3.667-4.112,6.635
			c8,34.12,42.36,57.8,80,68.24c16.035,4.52,32.669,6.543,49.32,6c14.923-0.223,29.595-3.878,42.88-10.68
			c8.677-4.535,15.858-11.48,20.68-20c4.822,8.52,12.004,15.465,20.68,20c13.285,6.802,27.957,10.457,42.88,10.68
			c16.748,0.546,33.48-1.505,49.6-6.08c37.52-10.48,71.72-34.12,80-68.24C386.69,244.284,385.874,242.05,384.112,240.736z
			 M166.947,300.384c-11.762,5.962-24.734,9.151-37.92,9.32c-15.559,0.503-31.102-1.399-46.08-5.64c-24-6.6-46.28-18.92-60-36
			c28.48,14.32,60.88-5.36,88.48-22.16c15.16-9.2,28.72-17.48,37.84-17.48c10.145-0.013,19.876,4.017,27.04,11.2
			c7.168,7.171,11.184,16.901,11.16,27.04C187.705,280.921,179.719,294.043,166.947,300.384z M173.307,212.024
			c-7.44-5.72-11.8-9.16-19.8,0.84c-3.803,4.07-9.591,5.622-14.92,4c-2.417-0.535-4.72-1.497-6.8-2.84
			c-1.87-1.169-3.455-2.74-4.64-4.6c-2.274-4.206-1.834-9.36,1.12-13.12c3.814-6.035,8.009-11.82,12.56-17.32
			c8.6-10.76,14.96-18.72,21.44-45.2c0.015-0.24,0.015-0.48,0-0.72c0.04-0.16,9.48-55.68,28.32-56.6h4.84
			c19,0.64,28.52,56.64,28.52,56.64c-0.015,0.24-0.015,0.48,0,0.72h0c6.48,26.48,12.84,34.44,21.56,45.16
			c4.55,5.501,8.746,11.286,12.56,17.32c2.954,3.76,3.394,8.914,1.12,13.12c-1.186,1.859-2.771,3.43-4.64,4.6
			c-2.08,1.343-4.383,2.305-6.8,2.84c-5.329,1.622-11.117,0.07-14.92-4c-7.8-10-12.4-6.52-19.8-0.84
			C201.69,222.061,184.645,222.061,173.307,212.024z M302.987,304.104c-14.942,4.215-30.443,6.104-45.96,5.6
			c-13.186-0.169-26.158-3.358-37.92-9.32c-12.772-6.341-20.757-19.463-20.52-33.72c0-21.119,17.121-38.24,38.24-38.24
			c9.08,0,22.68,8.28,37.8,17.48c27.6,16.84,59.96,36.52,88.36,22.2C349.427,285.104,326.987,297.424,302.987,304.104z"/>
	</g>
</g>
<g>
</g>
<g>
</g>
<g>
</g>
<g>
</g>
<g>
</g>
<g>
</g>
<g>
</g>
<g>
</g>
<g>
</g>
<g>
</g>
<g>
</g>
<g>
</g>
<g>
</g>
<g>
</g>
<g>
</g>
</svg>
