<?xml version="1.0" encoding="iso-8859-1"?>
<!-- Generator: Adobe Illustrator 19.0.0, SVG Export Plug-In . SVG Version: 6.00 Build 0)  -->
<svg version="1.1" id="Capa_1" xmlns="http://www.w3.org/2000/svg" xmlns:xlink="http://www.w3.org/1999/xlink" x="0px" y="0px"
	 viewBox="0 0 375.88 375.88" style="enable-background:new 0 0 375.88 375.88;" xml:space="preserve">
<g>
	<g>
		<path d="M370.34,346.565H220.38c0.713-1.893,1.078-3.898,1.08-5.92v-42.68H323.7c1.281-0.003,2.521-0.451,3.508-1.268
			c2.348-1.944,2.676-5.424,0.732-7.772l-67.92-81.84l-1.76-2.12h35.2c1.281-0.003,2.521-0.451,3.508-1.268
			c2.348-1.944,2.676-5.424,0.732-7.772l-46.64-56.52h28c1.281-0.003,2.521-0.451,3.508-1.268c2.348-1.944,2.676-5.424,0.732-7.772
			l-91.12-110.12h0.04c-0.225-0.273-0.476-0.524-0.75-0.75c-2.353-1.939-5.832-1.603-7.77,0.75l-90.84,109.88
			c-0.941,1.011-1.468,2.338-1.479,3.719c-0.023,3.049,2.43,5.538,5.479,5.561h28l-46.36,56.2c-0.941,1.011-1.468,2.338-1.479,3.719
			c-0.023,3.049,2.43,5.538,5.479,5.561h35.2l-1.76,2.12l-67.56,81.68c-0.941,1.011-1.468,2.338-1.479,3.719
			c-0.023,3.049,2.43,5.538,5.479,5.561h102v42.68c0.003,2.022,0.368,4.027,1.08,5.92H5.54c-3.06,0-5.54,2.48-5.54,5.54
			s2.48,5.54,5.54,5.54h364.8c3.06,0,5.54-2.48,5.54-5.54S373.4,346.565,370.34,346.565z M63.94,286.885l60.44-72.88l9.24-11.16
			c0.817-0.987,1.265-2.227,1.268-3.508c0.007-3.049-2.459-5.525-5.508-5.532h-35.2l46.64-56.32
			c0.817-0.987,1.265-2.227,1.268-3.508c0.007-3.049-2.459-5.525-5.508-5.532h-28l79.36-96l79.36,95.92l-28.12-0.04
			c-1.381,0.01-2.708,0.538-3.719,1.479c-2.232,2.077-2.358,5.569-0.281,7.801l46.4,56.2h-35.2c-1.381,0.01-2.708,0.538-3.719,1.479
			c-2.232,2.077-2.358,5.57-0.281,7.801l9.08,10.96l60.48,72.84H63.94z M210.42,340.645c-0.021,3.23-2.611,5.855-5.84,5.92H171.3
			c-3.229-0.065-5.819-2.69-5.84-5.92v-42.68h44.96V340.645z"/>
	</g>
</g>
<g>
</g>
<g>
</g>
<g>
</g>
<g>
</g>
<g>
</g>
<g>
</g>
<g>
</g>
<g>
</g>
<g>
</g>
<g>
</g>
<g>
</g>
<g>
</g>
<g>
</g>
<g>
</g>
<g>
</g>
</svg>
