<?xml version="1.0" encoding="iso-8859-1"?>
<!-- Generator: Adobe Illustrator 19.0.0, SVG Export Plug-In . SVG Version: 6.00 Build 0)  -->
<svg version="1.1" id="Capa_1" xmlns="http://www.w3.org/2000/svg" xmlns:xlink="http://www.w3.org/1999/xlink" x="0px" y="0px"
	 viewBox="0 0 346.72 346.72" style="enable-background:new 0 0 346.72 346.72;" xml:space="preserve">
<g>
	<g>
		<g>
			<path d="M308.06,23.96h-20.92c-0.956-0.724-2.121-1.117-3.32-1.12h-6.08L254.9,0H94.5h-0.52h-2.16L68.98,22.84H62.9
				c-1.199,0.003-2.364,0.396-3.32,1.12H38.66V24c-8.837,0-16,7.163-16,16v289.6c0,8.837,7.163,16,16,16h20.96
				c0.954,0.727,2.121,1.12,3.32,1.12h25.92c1.199,0,2.366-0.393,3.32-1.12h64.6c1.089,0.728,2.37,1.118,3.68,1.12h27.04
				c1.31-0.002,2.591-0.392,3.68-1.12h64.6c0.954,0.727,2.121,1.12,3.32,1.12h25.92c1.199,0,2.366-0.393,3.32-1.12h19.72
				c8.837,0,16-7.163,16-16V39.96C324.06,31.123,316.897,23.96,308.06,23.96z M57.42,174.04c-1.157,0.734-2.23,1.592-3.2,2.56
				c-3.504,3.454-5.491,8.16-5.52,13.08v32.76c0.011,7.197,2.89,14.092,8,19.16l0.68,0.64v94.6H38.66c-3.976,0-7.2-3.224-7.2-7.2V40
				c0-3.976,3.224-7.2,7.2-7.2h18.76V174.04z M278.94,34h0.56l0.04,137.08h-14.88V48.28L278.94,34z M238.86,9.48L215.34,33h-82.72
				L109.1,9.48H238.86z M204.26,44.04l-30.28,30.32L143.7,44.04H204.26z M68.46,33.92h0.56l14.32,14.32v122.84H68.46V33.92z
				 M68.46,335.8v-87.2c1.995,0.567,4.048,0.903,6.12,1h2.6c2.072-0.097,4.125-0.433,6.12-1l0.04,87.2H68.46z M91.9,222.4
				c0.006,8.607-6.799,15.677-15.4,16h-1.36c-3.192-0.134-6.271-1.221-8.84-3.12c-0.563-0.432-1.097-0.899-1.6-1.4
				c-3.024-3.006-4.723-7.096-4.72-11.36v-10.84h32L91.9,222.4z M91.98,200.6h-32l0.04-10.88c-0.001-1.995,0.79-3.909,2.2-5.32
				c1.219-1.21,2.813-1.972,4.52-2.16h18.4c0.655,0.048,1.301,0.182,1.92,0.4c1.023,0.384,1.95,0.985,2.72,1.76l0.2,0.2
				c1.279,1.383,1.993,3.196,2,5.08V200.6z M153.74,336.84h-59.4v-94.6l0.68-0.64c5.106-5.07,7.985-11.964,8-19.16v-32.76
				c-0.006-4.753-1.839-9.321-5.12-12.76l-0.32-0.36c-0.97-0.967-2.043-1.826-3.2-2.56V59.28l51.04,51.28
				c0.064,0.067,0.129,0.132,0.196,0.196c2.209,2.101,5.703,2.013,7.804-0.196l0.32-0.32V336.84z M155.34,93l-5.8,5.8l-56.8-56.76
				L79.1,28.4l16.64-16.64l30.72,30.76l39.68,39.68L155.34,93z M183.14,335.72h-18.32V99.16l9.16-9.16l9.16,9.16V335.72z
				 M253.58,174.04c-1.157,0.734-2.23,1.593-3.2,2.56c-3.49,3.46-5.461,8.166-5.48,13.08v32.76c0.011,7.197,2.89,14.092,8,19.16
				l0.68,0.64v94.56h-59.56V110.2l0.32,0.32c0.064,0.067,0.129,0.132,0.196,0.196c2.209,2.101,5.703,2.013,7.804-0.196l51.24-51.24
				V174.04z M255.14,42.08l-56.56,56.68l-5.8-5.8l-10.8-10.8l39.52-39.72l30.64-30.64l16.64,16.64L255.14,42.08z M264.66,335.8
				v-87.2c1.995,0.567,4.048,0.903,6.12,1h2.6c2.072-0.097,4.125-0.433,6.12-1l0.04,87.2H264.66z M288.22,222.4
				c0.006,8.607-6.799,15.677-15.4,16h-1.36c-3.192-0.134-6.271-1.221-8.84-3.12c-0.563-0.432-1.098-0.899-1.6-1.4
				c-3.024-3.006-4.723-7.096-4.72-11.36v-10.84h32L288.22,222.4z M288.3,200.6h-32l-0.28-10.88c-0.001-1.995,0.79-3.909,2.2-5.32
				c1.228-1.221,2.838-1.983,4.56-2.16h18.84c0.559,0.057,1.109,0.178,1.64,0.36c1.023,0.383,1.951,0.984,2.72,1.76v0.24
				c1.393,1.335,2.223,3.153,2.32,5.08V200.6z M316.46,329.72L316.46,329.72c0,3.977-3.224,7.2-7.2,7.2h-18.72v-94.6l0.68-0.64
				c5.11-5.068,7.989-11.963,8-19.16v-32.76c-0.006-4.753-1.839-9.321-5.12-12.76l-0.32-0.36c-0.97-0.967-2.043-1.826-3.2-2.56
				l0-141.28h18.68c3.967,0.022,7.178,3.233,7.2,7.2V329.72z"/>
			<circle cx="173.98" cy="151.56" r="5.2"/>
			<circle cx="173.98" cy="184.84" r="5.2"/>
			<circle cx="173.98" cy="118.28" r="5.2"/>
			<circle cx="173.98" cy="251.4" r="5.2"/>
			<circle cx="173.98" cy="317.8" r="5.2"/>
			<path d="M173.98,212.92L173.98,212.92c-2.872,0-5.2,2.328-5.2,5.2c0,2.872,2.328,5.2,5.2,5.2s5.2-2.328,5.2-5.2
				S176.852,212.92,173.98,212.92z"/>
			<path d="M173.979,289.88c2.872,0,5.2-2.328,5.201-5.199s-2.328-5.2-5.199-5.201v0c-2.841,0-5.156,2.279-5.2,5.12
				c0,0.026-0.001,0.053-0.001,0.079C168.779,287.551,171.107,289.88,173.979,289.88z"/>
		</g>
	</g>
</g>
<g>
</g>
<g>
</g>
<g>
</g>
<g>
</g>
<g>
</g>
<g>
</g>
<g>
</g>
<g>
</g>
<g>
</g>
<g>
</g>
<g>
</g>
<g>
</g>
<g>
</g>
<g>
</g>
<g>
</g>
</svg>
