<?xml version="1.0" encoding="iso-8859-1"?>
<!-- Generator: Adobe Illustrator 19.0.0, SVG Export Plug-In . SVG Version: 6.00 Build 0)  -->
<svg version="1.1" id="Capa_1" xmlns="http://www.w3.org/2000/svg" xmlns:xlink="http://www.w3.org/1999/xlink" x="0px" y="0px"
	 viewBox="0 0 363.483 363.483" style="enable-background:new 0 0 363.483 363.483;" xml:space="preserve">
<g>
	<g>
		<path d="M351.387,293.395c-2.471-2.698-5.281-5.064-8.36-7.04c-3.347-2.345-6.565-4.868-9.64-7.56
			c-24.806-23.164-47.856-48.139-68.96-74.72c-23-28.08-46.76-59.16-70-89.92l4.2-1.64l0.56-0.24c1.434-0.567,2.781-1.335,4-2.28
			c3.656-3.076,5.978-7.449,6.48-12.2c0.611-4.475,0.131-9.031-1.4-13.28c-0.963-2.539-2.312-4.913-4-7.04l-26.6-33.2l-26.76-33.08
			c-1.698-2.095-3.708-3.917-5.96-5.4c-3.797-2.613-8.18-4.248-12.76-4.76c-4.754-0.531-9.529,0.803-13.32,3.72
			c-1.322,1.069-2.469,2.338-3.4,3.76l-0.6,0.88l-1-1.24v-0.24c-7.2-8.6-17.64-9.52-27.2-5.96c-3.446,1.297-6.671,3.118-9.56,5.4
			c-2.899,2.243-5.412,4.946-7.44,8c-6.019,8.302-5.606,19.637,1,27.48l5.2,6.44l1.96,2.4c-1.733,1.493-3.48,2.933-5.24,4.32
			c-12.157,9.615-25.524,17.59-39.76,23.72c0,0-9,3.6-12,4.64c-5.671,1.599-9.976,6.228-11.16,12c-5.32,19.36,26.2,61.48,26.2,61.48
			c9.572,12.396,21.047,23.196,34,32c14.28,8.84,27,10.32,34.28-1.32l7-10.36c9.132-12.638,19.891-24.017,32-33.84
			c2-1.627,4.04-3.213,6.12-4.76c25.225,31.217,48.522,63.945,69.76,98c20.8,34.44,37,69.04,44,102.04c0.48,2.24,0.84,4.08,1.16,5.8
			h0.04c0.443,5.087,2.058,10.002,4.72,14.36c7.64,9.48,20.12,1.68,62.84-32.6C354.547,308.915,358.107,301.795,351.387,293.395z
			 M78.867,21.555c1.347-2.059,3.023-3.883,4.96-5.4c1.982-1.57,4.195-2.825,6.56-3.72c4.979-2.455,10.977-1.385,14.8,2.64l3,3.76
			c-3.571,5.095-7.444,9.97-11.6,14.6l-10.64,11.08l-1.6-1.96l-5.16-6.4C75.79,31.92,75.659,25.933,78.867,21.555z M94.747,182.755
			c-3.08,4.96-10.4,3.2-19.08-2.24c-12.053-7.962-22.625-17.965-31.24-29.56c-8.72-11.56-27.8-39.04-23.56-52.88
			c0.92-3.08,4.12-3.52,5.8-4c1.04-0.28,2-0.72,3-1.12c2.76,14.16,13.04,32.84,26.04,48.84s28.72,30.28,41.96,36L94.747,182.755z
			 M147.267,127.795c-3.707,2.507-7.293,5.173-10.76,8c-11.873,9.642-22.525,20.697-31.72,32.92c-11.56-3.68-27-17.64-40-33.84
			c-13-16.2-23.24-34.28-24.36-46.28c13.942-6.381,27.052-14.441,39.04-24c3.253-2.507,6.44-5.173,9.56-8l0.24-0.24
			c7.623-6.933,14.722-14.42,21.24-22.4l0.24-0.28l0.24-0.28l0.24-0.28l0.24-0.28l0.24-0.28l0.24-0.28l0.24-0.28l0.2-0.28
			c2.533-3.173,5-6.44,7.4-9.8v-0.28c1.653-2.267,3.267-4.6,4.84-7c0.283-0.463,0.633-0.881,1.04-1.24
			c1.593-1.191,3.585-1.721,5.56-1.48c2.722,0.28,5.333,1.228,7.6,2.76c1.313,0.855,2.487,1.908,3.48,3.12l26.64,33.4l26.6,33.2
			c0.959,1.209,1.728,2.558,2.28,4c0.994,2.542,1.352,5.288,1.04,8c-0.155,1.946-1.041,3.761-2.48,5.08
			c-0.342,0.286-0.718,0.527-1.12,0.72h-0.32c-6.107,2.4-11.987,4.933-17.64,7.6l-12.56,7.04
			C158.74,120.192,152.906,123.85,147.267,127.795z M324.867,318.634c-35.92,28.8-45.76,36.24-47.32,34.28
			c-1.305-3.029-2.141-6.239-2.48-9.52c-0.36-2.08-0.8-4.12-1.2-6.08c-7.28-34.28-23.96-70-45.48-105.48
			c-21.349-34.248-44.766-67.162-70.12-98.56c3.76-2.453,7.653-4.813,11.68-7.08c4.587-2.587,9.36-5.027,14.32-7.32
			c23.64,31.36,47.96,63.32,71.64,92.2c21.457,27.036,44.895,52.44,70.12,76c3.372,2.931,6.897,5.682,10.56,8.24
			c2.243,1.45,4.322,3.14,6.2,5.04C344.227,302.194,340.867,305.914,324.867,318.634z"/>
	</g>
</g>
<g>
</g>
<g>
</g>
<g>
</g>
<g>
</g>
<g>
</g>
<g>
</g>
<g>
</g>
<g>
</g>
<g>
</g>
<g>
</g>
<g>
</g>
<g>
</g>
<g>
</g>
<g>
</g>
<g>
</g>
</svg>
