<?xml version="1.0" encoding="iso-8859-1"?>
<!-- Generator: Adobe Illustrator 19.0.0, SVG Export Plug-In . SVG Version: 6.00 Build 0)  -->
<svg version="1.1" id="Capa_1" xmlns="http://www.w3.org/2000/svg" xmlns:xlink="http://www.w3.org/1999/xlink" x="0px" y="0px"
	 viewBox="0 0 390.317 390.317" style="enable-background:new 0 0 390.317 390.317;" xml:space="preserve">
<g>
	<g>
		<path d="M263.921,71.358c-1.083-2.85-4.271-4.282-7.121-3.199c-2.607,0.991-4.065,3.77-3.399,6.479c1.84,8-5.64,15.2-12,20
			c0-41.64-36.48-86.92-40.36-91.6c-1.381-2.728-4.712-3.821-7.44-2.44s-3.821,4.712-2.44,7.44c8.52,24-10.36,40.88-31.52,60
			c-23.44,21.16-49.44,44.6-49.44,83.08c-0.2,28.96,20.04,48.36,46.68,57.68c23.115,7.743,48.047,8.217,71.44,1.36
			c28-8.48,50.32-28.24,52-60C282.041,114.358,265.001,73.878,263.921,71.358z M269.161,149.558c-1.24,26.2-20,42.68-44,49.92
			c-21.157,6.176-43.696,5.743-64.6-1.24c-22.4-7.8-39.4-23.76-39.4-47.32c-0.08-33.44,23.96-55.12,45.68-74.72h0.04
			c17.92-16,34.4-31.04,37.12-50.32c12.72,18.88,30.32,50.96,25.24,78.16c-0.501,3.007,1.531,5.851,4.538,6.352
			c1.183,0.197,2.399,0.003,3.462-0.552c8.669-4.417,16.261-10.685,22.24-18.36C264.281,106.198,270.161,128.838,269.161,149.558z"
			/>
	</g>
</g>
<g>
	<g>
		<path d="M347.361,348.958c-2.351-7.97-7.777-14.676-15.08-18.64l-70.08-38l74.8-40.52h0.2c6.361-3.651,10.542-10.175,11.2-17.48
			c0.85-7.772-0.744-15.616-4.56-22.44c-3.648-6.898-9.352-12.489-16.32-16c-6.224-3.293-13.637-3.456-20-0.44l-0.44,0.2
			l-111.92,60.32l-111.68-60.48h-0.24c-6.465-3.157-14.051-3.023-20.4,0.36c-6.968,3.511-12.672,9.102-16.32,16
			c-3.824,6.835-5.419,14.695-4.56,22.48c0.672,7.121,4.698,13.494,10.84,17.16h0.32l74.96,40.84l-70.04,38
			c-15.16,8.292-20.787,27.263-12.6,42.48l0.48,0.84v0.28c8.292,15.16,27.263,20.787,42.48,12.6l106.76-57.8l106.64,57.84
			c15.217,8.187,34.188,2.56,42.48-12.6v-0.28l0.48-0.84C348.78,365.544,349.716,356.946,347.361,348.958z M306.721,214.238
			c0.231-3.731,2.24-7.123,5.4-9.12c3.399-1.566,7.343-1.402,10.6,0.44c4.884,2.54,8.854,6.539,11.36,11.44
			c2.728,4.778,3.902,10.285,3.36,15.76c-0.238,3.697-2.211,7.064-5.32,9.08h-0.2c-3.38,1.487-7.264,1.295-10.48-0.52
			c-4.882-2.542-8.852-6.54-11.36-11.44C307.378,225.135,306.204,219.673,306.721,214.238z M58.201,241.878
			c-3.159-1.991-5.157-5.391-5.36-9.12c-0.542-5.475,0.632-10.982,3.36-15.76c2.508-4.9,6.478-8.898,11.36-11.44
			c3.325-1.589,7.155-1.748,10.6-0.44c5.96,2.84,9.36,12.76,1.64,25.64C72.081,243.638,63.161,244.518,58.201,241.878z
			 M74.761,250.438c6.187-3.648,11.359-8.792,15.04-14.96c3.532-6.619,5.218-14.066,4.88-21.56l88.88,48l-21.6,11.72l-22.28,12
			L74.761,250.438z M83.161,376.838c-9.803,5.331-22.07,1.76-27.48-8v-0.28l-0.52-1.08c-5.331-9.803-1.76-22.07,8-27.48l232.36-126
			c-0.539,7.481,1.144,14.954,4.84,21.48c3.396,6.365,8.528,11.636,14.8,15.2h0.2L83.161,376.838z M335.161,367.478l-0.44,0.84v0.28
			c-5.41,9.76-17.677,13.331-27.48,8l-100.48-54.2l44-23.8l76.4,41.44C336.897,345.446,340.465,357.684,335.161,367.478z"/>
	</g>
</g>
<g>
</g>
<g>
</g>
<g>
</g>
<g>
</g>
<g>
</g>
<g>
</g>
<g>
</g>
<g>
</g>
<g>
</g>
<g>
</g>
<g>
</g>
<g>
</g>
<g>
</g>
<g>
</g>
<g>
</g>
</svg>
