<?xml version="1.0" encoding="iso-8859-1"?>
<!-- Generator: Adobe Illustrator 19.0.0, SVG Export Plug-In . SVG Version: 6.00 Build 0)  -->
<svg version="1.1" id="Capa_1" xmlns="http://www.w3.org/2000/svg" xmlns:xlink="http://www.w3.org/1999/xlink" x="0px" y="0px"
	 viewBox="0 0 391.036 391.036" style="enable-background:new 0 0 391.036 391.036;" xml:space="preserve">
<g>
	<g>
		<g>
			<path d="M384.078,269.782l-96.88-75.12c-6.216-4.785-14.805-5.027-21.28-0.6L39.878,18.702l-0.76-0.6
				c-7.744-5.592-18.497-4.228-24.6,3.12c-0.222,0.236-0.422,0.49-0.6,0.76l-12.8,16.52c-0.935,1.235-1.307,2.806-1.027,4.329
				c0.551,2.998,3.429,4.982,6.427,4.431l12.36-2.64l-3.68,13.24c-0.217,0.797-0.252,1.632-0.104,2.444
				c0.549,2.999,3.425,4.985,6.424,4.436l14-2.24l-3.24,14.84c-0.202,0.851-0.2,1.738,0.008,2.588
				c0.723,2.961,3.711,4.776,6.672,4.052l12.56-2.52l-4,13.32c-0.271,0.847-0.333,1.747-0.181,2.623
				c0.52,3.004,3.377,5.017,6.381,4.497l13.8-2.2l-4,13.52c-0.169,0.557-0.248,1.137-0.236,1.719
				c0.065,3.048,2.588,5.466,5.636,5.401l16.36-1.16l-4,14.8c-0.187,0.674-0.243,1.378-0.167,2.073
				c0.331,3.031,3.057,5.219,6.087,4.887l16.52-1.64l-3.08,16.68c-0.076,0.427-0.102,0.862-0.076,1.295
				c0.18,3.043,2.793,5.365,5.836,5.185l17.12-1l-3.08,18.24c-0.085,0.47-0.108,0.949-0.069,1.425
				c0.247,3.039,2.911,5.302,5.949,5.055l17.72-1.24l-2.92,17.24c-0.507,3.004,1.516,5.85,4.52,6.36c0.386,0.04,0.774,0.04,1.16,0
				l18.16,0.32l-4.68,16c-0.188,0.648-0.256,1.325-0.2,1.998c0.253,3.038,2.922,5.295,5.96,5.042l18.72-0.72l-2.68,20
				c-0.046,0.364-0.056,0.732-0.029,1.099c0.223,3.04,2.869,5.324,5.909,5.101l15.12-1.24l-5.48,10.32
				c-1.145,2.155-0.738,4.807,1,6.52l3.08,3.52c-3.177,7.547-0.897,16.286,5.56,21.32l96.96,74.8
				c7.853,6.031,19.092,4.641,25.24-3.12l7.56-9.76c1.847-2.41,1.4-5.86-1-7.72l-17.8-13.8c-0.38-0.291-0.626-0.724-0.68-1.2
				c-0.058-0.47,0.071-0.945,0.36-1.32l33.52-43l0.4-0.52c0.582-0.588,1.489-0.703,2.2-0.28l0.48,0.36l17.52,13.6
				c2.41,1.847,5.86,1.4,7.72-1l7.56-9.76C393.344,287.215,391.916,275.912,384.078,269.782z M193.918,245.782l2.6-19.44
				c0.048-0.325,0.066-0.653,0.056-0.982c-0.099-3.047-2.649-5.437-5.696-5.338l-17.88,0.68l4.56-15.52
				c0.148-0.48,0.229-0.978,0.24-1.48c0.001-0.04,0.001-0.081,0.001-0.121c-0.001-3.049-2.473-5.519-5.521-5.519l-19.32-0.32
				l3-17.68c0.092-0.472,0.121-0.955,0.088-1.435c-0.211-3.041-2.847-5.336-5.888-5.125l-17.72,1.24l3.08-18.28
				c0.047-0.412,0.047-0.828,0-1.24c-0.232-2.907-2.685-5.132-5.6-5.08l-17.04,1l3.12-16.8c0.116-0.547,0.148-1.108,0.095-1.665
				c-0.287-3.035-2.98-5.263-6.015-4.975l-16,1.56l4-14.28c0.234-0.69,0.329-1.418,0.28-2.145c-0.206-3.042-2.838-5.341-5.88-5.135
				l-16.2,0.96l4.28-14.44c0.223-0.766,0.277-1.572,0.158-2.361c-0.453-3.015-3.264-5.092-6.278-4.639l-14.04,2.2l4-13.72
				c0.175-0.749,0.192-1.525,0.049-2.281c-0.566-2.996-3.453-4.965-6.449-4.399l-13.24,2.68l3.48-14.72
				c0.19-0.733,0.228-1.496,0.11-2.244c-0.473-3.012-3.298-5.069-6.31-4.596l-13.84,2.2l3.76-13.48
				c0.312-0.929,0.371-1.924,0.171-2.883c-0.622-2.984-3.546-4.899-6.531-4.277l-6.48,1.6l3.84-4.88
				c2.394-3.025,6.77-3.577,9.84-1.24l225.68,175.04l-38.04,49.04l-7.2,9.28l4.36-8.24c0.452-0.893,0.653-1.892,0.581-2.89
				c-0.219-3.041-2.861-5.329-5.901-5.11L193.918,245.782z M378.438,288.142l-4,5.4l-13.48-10.44l-0.28-0.2
				c-5.622-3.94-13.346-2.779-17.56,2.64l-0.24,0.28l-33.24,42.84c-0.224,0.248-0.425,0.516-0.6,0.8
				c-3.799,5.425-2.864,12.846,2.16,17.16c0.247,0.237,0.515,0.451,0.8,0.64l13.12,10.16l-4,5.08l-0.48,0.6
				c-2.364,2.747-6.421,3.265-9.4,1.2l-0.6-0.48l-96.56-74.88c-3.013-2.379-3.581-6.727-1.28-9.8l57.52-74.12l0.48-0.6
				c2.355-2.765,6.426-3.284,9.4-1.2l0.6,0.48l96.56,74.84l-0.16-0.28C380.249,280.659,380.802,285.065,378.438,288.142z"/>
			<path d="M309.038,243.142l-25.64-20l0.12,0.12c-2.091-1.683-4.78-2.435-7.44-2.08c-2.58,0.33-4.924,1.667-6.52,3.72l-37.44,48.28
				c-1.588,2.058-2.293,4.662-1.96,7.24c0.315,2.595,1.655,4.957,3.72,6.56l25.64,20c2.089,1.619,4.743,2.326,7.36,1.96
				c2.595-0.315,4.957-1.655,6.56-3.72l37.36-48.28C314.122,252.645,313.334,246.468,309.038,243.142z M265.358,297.502l-23.76-18.4
				l36-46.36l23.76,18.4L265.358,297.502z"/>
		</g>
	</g>
</g>
<g>
</g>
<g>
</g>
<g>
</g>
<g>
</g>
<g>
</g>
<g>
</g>
<g>
</g>
<g>
</g>
<g>
</g>
<g>
</g>
<g>
</g>
<g>
</g>
<g>
</g>
<g>
</g>
<g>
</g>
</svg>
