<?xml version="1.0" encoding="iso-8859-1"?>
<!-- Generator: Adobe Illustrator 19.0.0, SVG Export Plug-In . SVG Version: 6.00 Build 0)  -->
<svg version="1.1" id="Capa_1" xmlns="http://www.w3.org/2000/svg" xmlns:xlink="http://www.w3.org/1999/xlink" x="0px" y="0px"
	 viewBox="0 0 399.579 399.579" style="enable-background:new 0 0 399.579 399.579;" xml:space="preserve">
<g>
	<g>
		<g>
			<path d="M99.009,298.278c-1.969,0.689-3.988,1.224-6.04,1.6c-2.029,0.265-4.075,0.372-6.12,0.32
				c-13.506-0.33-26.131-6.775-34.32-17.52c-9.837-12.448-15.104-27.895-14.92-43.76c0-3.06-2.48-5.54-5.54-5.54
				s-5.54,2.48-5.54,5.54c-0.227,18.381,5.859,36.284,17.24,50.72c10.261,13.357,26.04,21.32,42.88,21.64
				c2.679,0,5.355-0.214,8-0.64c2.617-0.413,5.198-1.028,7.72-1.84c2.905-0.928,4.508-4.035,3.58-6.94
				S101.914,297.35,99.009,298.278z"/>
			<path d="M37.374,209.938c2.733,1.352,6.044,0.232,7.395-2.5c4.056-8.697,10.265-16.215,18.04-21.84
				c6.976-5.094,15.363-7.889,24-8c13.506,0.33,26.131,6.775,34.32,17.52c9.766,12.475,14.961,27.919,14.72,43.76
				c0,3.06,2.48,5.54,5.54,5.54s5.54-2.48,5.54-5.54c0.227-18.381-5.859-36.284-17.24-50.72
				c-10.269-13.341-26.047-21.289-42.88-21.6c-10.854,0.079-21.418,3.516-30.24,9.84c-9.386,6.75-16.879,15.8-21.76,26.28
				C33.557,205.393,34.694,208.613,37.374,209.938z"/>
			<path d="M374.489,164.878c-15.72-19.2-37.76-31.2-61.76-31.2h-35.04l25.6-58c0.171-0.372,0.305-0.761,0.4-1.16
				c1-4.12-2.36-8-8.52-10.92c-5.146-2.293-10.505-4.075-16-5.32c-5.464-1.383-11.051-2.227-16.68-2.52c-6-0.2-10.4,1.32-12,4.6
				l-44.68,73.32H86.849c-24.16,0-46,11.92-61.76,31.2C8.523,185.91-0.33,211.987,0.009,238.758
				c-0.339,26.771,8.513,52.848,25.08,73.88c15.72,19.2,37.76,31.2,61.76,31.2h225.88c24.16,0,46-11.92,61.76-31.2
				c16.567-21.032,25.419-47.109,25.08-73.88C399.909,211.987,391.056,185.91,374.489,164.878z M213.849,141.838l42.8-70.28
				c4.954,2.496,10.156,4.467,15.52,5.88c5.525,1.41,11.158,2.36,16.84,2.84l-25,56.72l-0.04-0.08l-9.36,21.2
				c-6,4.68-17.56,5.84-28.68,4.92c-7.561-0.393-14.988-2.154-21.92-5.2L213.849,141.838z M33.609,305.718
				c-14.951-19.071-22.913-42.69-22.56-66.92c-0.353-24.23,7.609-47.849,22.56-66.92c12.701-16.643,32.271-26.619,53.2-27.12
				c20.943,0.489,40.531,10.467,53.24,27.12c14.965,19.065,22.942,42.685,22.6,66.92c0.353,24.23-7.609,47.849-22.56,66.92
				c-12.71,16.653-32.297,26.631-53.24,27.12C65.906,332.349,46.319,322.371,33.609,305.718z M365.769,305.678
				c-12.71,16.653-32.297,26.631-53.24,27.12h-186.84c8.841-5.15,16.62-11.938,22.92-20c16.64-20.992,25.501-47.096,25.08-73.88
				c0.468-26.852-8.397-53.034-25.08-74.08c-6.486-7.884-14.23-14.642-22.92-20l73.32,0.28l-7.08,11.6
				c-1.33,2.16-1.017,4.949,0.76,6.76l0.36,0.36c5.32,5.28,18.2,9.64,32,10.6c13.8,0.96,28.64-0.96,37.04-8l0.8-0.72
				c0.563-0.515,1.013-1.141,1.32-1.84l8.32-19.12h40c20.943,0.489,40.53,10.467,53.24,27.12
				c14.942,19.06,22.904,42.664,22.56,66.88C388.683,262.988,380.72,286.607,365.769,305.678z"/>
			<path d="M76.063,258.291c7.931,5.957,19.189,4.357,25.147-3.573c7.247-9.317,7.247-22.363,0-31.68
				c-3.451-4.444-8.734-7.078-14.36-7.16c-5.626,0.081-10.909,2.716-14.36,7.16c-7.247,9.317-7.247,22.363,0,31.68
				C73.506,256.072,74.709,257.275,76.063,258.291z M81.209,230.038c0.488-0.709,1.101-1.322,1.81-1.81
				c3.203-2.204,7.586-1.393,9.79,1.81c3.907,5.275,3.907,12.485,0,17.76c-0.488,0.709-1.101,1.322-1.81,1.81
				c-3.203,2.204-7.586,1.393-9.79-1.81C77.302,242.523,77.302,235.313,81.209,230.038z"/>
			<path d="M106.975,200.444c-14.989-11.126-36.16-7.995-47.286,6.994c-6.992,8.972-10.704,20.067-10.52,31.44
				c0,3.06,2.48,5.54,5.54,5.54s5.54-2.48,5.54-5.54c-0.15-8.87,2.744-17.525,8.2-24.52c1.448-2.015,3.213-3.78,5.228-5.228
				c10.261-7.374,24.558-5.034,31.932,5.228c10.96,14.509,10.96,34.531,0,49.04c-4.413,5.862-11.265,9.384-18.6,9.56
				c-3.06,0-5.54,2.48-5.54,5.54s2.48,5.54,5.54,5.54l-0.16-0.16c10.615-0.153,20.589-5.11,27.12-13.48
				c14.301-18.55,14.301-44.41,0-62.96C111.994,204.776,109.637,202.42,106.975,200.444z"/>
		</g>
	</g>
</g>
<g>
</g>
<g>
</g>
<g>
</g>
<g>
</g>
<g>
</g>
<g>
</g>
<g>
</g>
<g>
</g>
<g>
</g>
<g>
</g>
<g>
</g>
<g>
</g>
<g>
</g>
<g>
</g>
<g>
</g>
</svg>
