<?xml version="1.0" encoding="iso-8859-1"?>
<!-- Generator: Adobe Illustrator 19.0.0, SVG Export Plug-In . SVG Version: 6.00 Build 0)  -->
<svg version="1.1" id="Capa_1" xmlns="http://www.w3.org/2000/svg" xmlns:xlink="http://www.w3.org/1999/xlink" x="0px" y="0px"
	 viewBox="0 0 375.88 375.88" style="enable-background:new 0 0 375.88 375.88;" xml:space="preserve">
<g>
	<g>
		<g>
			<path d="M282.34,105.1h55.52c6.196,0.001,12.138-2.459,16.52-6.84c0.001-0.001,0.003-0.003,0.004-0.004
				c9.122-9.124,9.12-23.914-0.004-33.036c-4.379-4.384-10.323-6.845-16.52-6.84h-0.56c-4.447-11.127-15.217-18.429-27.2-18.44
				c-11.983,0.011-22.753,7.313-27.2,18.44h-0.56c-6.196-0.001-12.138,2.459-16.52,6.84c-0.001,0.001-0.003,0.003-0.004,0.004
				c-9.122,9.124-9.12,23.914,0.004,33.036C270.202,102.641,276.144,105.101,282.34,105.1z M273.62,73.26
				c2.311-2.313,5.45-3.609,8.72-3.6h1.6h0.4l1.16,0.24c0.006,0.002,0.013,0.003,0.019,0.005c2.956,0.745,5.956-1.049,6.701-4.005
				v-0.28c0.591-2.889,1.873-5.591,3.737-7.876c6.368-7.806,17.858-8.972,25.663-2.604c3.245,2.649,5.478,6.336,6.32,10.44
				c0.003,0.017,0.007,0.034,0.01,0.051c0.608,2.987,3.522,4.916,6.51,4.309h0.28l1.52-0.28h1.6c3.27-0.009,6.409,1.287,8.72,3.6
				c4.805,4.836,4.805,12.644,0,17.48c-2.311,2.313-5.45,3.609-8.72,3.6h-55.52c-3.27,0.009-6.409-1.287-8.72-3.6
				C268.815,85.904,268.815,78.096,273.62,73.26z"/>
			<path d="M370.34,324.82h-31.52l-48.48-87.76l-41.2-74.56l-7.36-13.32l7.6-13.76c1.469-2.673,0.493-6.031-2.18-7.5
				c-2.673-1.469-6.031-0.493-7.5,2.18l-4.24,7.64l-4.24-7.64c-1.469-2.673-4.827-3.649-7.5-2.18c-2.673,1.469-3.649,4.827-2.18,7.5
				l7.48,13.64l-20,36.36l-13.8-16.68h18.72c1.281-0.003,2.521-0.451,3.508-1.268c2.348-1.944,2.676-5.424,0.732-7.772l-34.88-42.16
				l-34.88-42.16c-0.218-0.261-0.459-0.502-0.72-0.72c-2.343-1.939-5.813-1.617-7.76,0.72l-34.88,42.16L70.34,159.5
				c-0.941,1.011-1.468,2.338-1.479,3.719c-0.023,3.049,2.43,5.538,5.479,5.561h18.8l-33.8,40.88
				c-0.941,1.011-1.468,2.338-1.479,3.719c-0.023,3.049,2.43,5.538,5.479,5.561h24.2l-51.24,62
				c-0.941,1.011-1.468,2.338-1.479,3.719c-0.023,3.049,2.43,5.538,5.479,5.561h76.88v31.4c-0.005,1.09,0.116,2.177,0.36,3.24h-112
				c-3.06,0-5.54,2.48-5.54,5.54c0,3.06,2.48,5.54,5.54,5.54v-0.04h364.8c3.06,0,5.54-2.48,5.54-5.54S373.4,324.82,370.34,324.82z
				 M51.94,279.14l44.48-53.6l7.08-8.56c0.817-0.987,1.265-2.227,1.268-3.508c0.007-3.049-2.459-5.525-5.508-5.532h-24.2l32.88-40
				l0.92-1.16c0.817-0.987,1.265-2.227,1.268-3.508c0.007-3.049-2.459-5.525-5.508-5.532H85.9l27.4-33.12l30.64-37.04l30.72,36.88
				l27.4,33.12h-18.72c-1.35,0.019-2.646,0.532-3.643,1.442c-2.252,2.055-2.412,5.546-0.357,7.798l0.92,1.12l22.84,27.88l-6.64,12
				h-7.64c-1.381,0.01-2.708,0.538-3.719,1.479c-2.232,2.077-2.358,5.57-0.281,7.801l4,4.8l-8.36,15.16l-23.24,42.08H51.94z
				 M131.38,324.94l0.04-0.12c-0.822,0.031-1.624-0.255-2.24-0.8c-0.609-0.603-0.954-1.423-0.96-2.28v-31.4h22.84l-19.12,34.6
				H131.38z M144.54,324.9l20.56-37.16l0.36-0.6l24.88-44.6l10.08-18.28v-0.32l4.28-8l10.12-17.76v-0.36l15.44-28l-0.4,77.16
				L206.5,324.9H144.54z M218.06,324.82l17.32-57.8l17.36,57.8H218.06z M244.82,259.94l25.44,15.56l-10.32,35.4L244.82,259.94z
				 M267.54,324.82l14.64-50.28c0.686-2.392-0.313-4.948-2.44-6.24l-38.8-23.6l0.36-73.56l39.36,71.24l45.56,82.44H267.54z"/>
			<path d="M33.06,110.42h36.36c4.367-0.012,8.567-1.682,11.751-4.671c6.942-6.517,7.286-17.427,0.769-24.369l-0.36-0.4
				c-3.016-3.028-7.052-4.825-11.32-5.04c-3.509-7.33-10.913-11.996-19.04-12c-8.127,0.004-15.531,4.67-19.04,12
				c-4.204,0.274-8.16,2.082-11.12,5.08c-3.219,3.198-5.043,7.539-5.076,12.077C15.916,102.596,23.561,110.352,33.06,110.42z
				 M28.9,88.9c1.157-1.155,2.725-1.802,4.36-1.8h0.8h0.8c2.948,0.732,5.933-1.056,6.68-4v-0.28
				c0.322-1.475,0.974-2.859,1.905-4.048c3.419-4.365,9.73-5.132,14.095-1.712c1.913,1.488,3.221,3.62,3.68,6
				c0.621,2.981,3.538,4.896,6.52,4.28h0.44h0.6h0.8c1.635-0.002,3.203,0.645,4.36,1.8h0.2c0.993,1.116,1.549,2.554,1.567,4.048
				c0.04,3.424-2.703,6.232-6.127,6.272H33.26c-1.616-0.012-3.163-0.655-4.312-1.792C26.513,95.26,26.492,91.334,28.9,88.9z"/>
		</g>
	</g>
</g>
<g>
</g>
<g>
</g>
<g>
</g>
<g>
</g>
<g>
</g>
<g>
</g>
<g>
</g>
<g>
</g>
<g>
</g>
<g>
</g>
<g>
</g>
<g>
</g>
<g>
</g>
<g>
</g>
<g>
</g>
</svg>
